<?xml version="1.0" standalone="no"?>
<!DOCTYPE svg PUBLIC "-//W3C//DTD SVG 20010904//EN"
 "http://www.w3.org/TR/2001/REC-SVG-20010904/DTD/svg10.dtd">
<svg version="1.0" xmlns="http://www.w3.org/2000/svg"
 width="1232.000000pt" height="1232.000000pt" viewBox="0 0 1232.000000 1232.000000"
 preserveAspectRatio="xMidYMid meet">
<metadata>
Created by potrace 1.11, written by Peter Selinger 2001-2013
</metadata>
<g transform="translate(0.000000,1232.000000) scale(0.100000,-0.100000)"
fill="#000000" stroke="none">
<path d="M0 9311 l0 -289 1013 0 c556 0 1027 -1 1045 -1 l32 -1 0 -748 0 -747
-1045 0 -1045 0 2 -289 3 -290 1043 0 1042 0 0 -748 0 -748 -27 0 c-16 -1
-486 -1 -1045 -1 l-1018 -1 0 -289 0 -289 1045 0 1045 0 0 -749 0 -749 -1017
0 c-560 -1 -1030 -1 -1045 -1 l-28 -1 0 -288 0 -287 2374 0 c1306 0 2377 3
2381 7 5 5 8 202 4 348 0 8 1 59 2 112 1 54 0 101 -4 104 -3 3 -474 6 -1046 6
l-1041 0 0 749 0 749 1045 0 c829 0 1045 3 1045 13 1 6 1 50 0 97 0 47 0 103
1 125 0 22 0 76 0 120 -1 80 -1 153 1 164 0 3 0 18 -1 33 l-1 27 -1017 0
c-560 0 -1030 0 -1045 1 l-28 0 0 748 0 748 1033 -1 c567 0 1040 3 1050 8 13
6 15 12 7 26 -5 10 -7 21 -4 23 2 3 5 54 5 114 -1 117 0 149 2 262 1 41 -1 79
-5 85 -3 6 -2 20 2 33 6 15 5 24 -3 26 -7 2 -479 4 -1050 3 l-1037 0 2 749 3
748 1043 1 1042 0 1 26 c1 14 0 42 0 61 -1 19 -1 53 0 75 1 39 0 175 -2 205 0
8 0 47 1 85 1 39 1 82 1 98 l-1 27 -2380 0 -2380 0 0 -289z"/>
<path d="M7509 9596 c-1 -1 -3 -1530 -3 -3398 l-2 -3398 35 -1 c42 -1 497 -1
526 0 20 1 20 8 19 1877 l-1 1876 900 -902 899 -903 899 902 c700 702 899 897
900 879 3 -118 -1 -540 -6 -548 -3 -5 -3 -10 2 -10 8 0 9 -263 0 -277 -2 -4
-1 -17 3 -27 3 -11 4 -37 0 -58 -4 -20 -5 -40 -2 -42 7 -7 6 -346 -1 -352 -3
-4 -2 -16 3 -29 5 -13 7 -25 5 -27 -5 -5 -6 -36 -5 -248 1 -96 0 -177 -1 -180
-1 -3 0 -9 1 -15 5 -25 1 -325 -5 -334 -3 -6 -3 -11 2 -11 8 0 9 -263 0 -277
-2 -4 -1 -17 3 -27 3 -11 4 -37 0 -58 -4 -20 -5 -40 -2 -42 7 -7 6 -346 -1
-352 -3 -4 -2 -16 3 -29 5 -13 7 -25 5 -27 -5 -5 -6 -39 -4 -245 0 -94 -1
-175 -4 -180 -2 -4 -1 -17 3 -27 3 -11 4 -37 0 -58 -4 -20 -5 -40 -2 -42 2 -3
5 -50 5 -106 0 -66 4 -100 11 -101 39 -4 53 -3 72 3 12 4 25 4 28 1 8 -8 392
-7 405 1 6 4 11 3 11 -2 0 -5 12 -7 28 -5 l27 5 -1 3391 c-1 1866 -2 3395 -3
3398 0 3 -113 5 -249 5 l-248 -1 -126 -130 c-69 -71 -161 -167 -204 -212 -129
-133 -484 -501 -549 -568 -33 -34 -154 -160 -270 -280 -115 -119 -237 -245
-270 -280 -33 -34 -152 -157 -265 -274 l-205 -212 -115 119 c-63 66 -185 192
-270 282 -85 89 -192 201 -238 248 -46 48 -129 135 -185 193 -56 59 -185 193
-287 300 -102 106 -205 214 -230 240 -25 25 -119 124 -210 219 -91 95 -204
213 -252 264 l-87 91 -245 1 c-135 0 -247 0 -247 0z m733 -1133 c84 -83 485
-485 891 -892 406 -408 741 -741 745 -741 5 0 406 400 893 888 487 489 890
891 895 895 7 4 10 -215 10 -623 l-1 -628 -26 -29 c-19 -20 -1744 -1734 -1775
-1762 -2 -2 -407 399 -900 893 l-896 896 -1 48 c0 27 3 53 7 60 4 7 4 12 -1
12 -4 0 -8 40 -8 90 0 49 4 90 8 90 5 0 5 5 2 10 -9 15 -10 104 -1 118 4 7 4
12 -1 12 -9 0 -9 108 1 117 3 3 3 10 -1 16 -8 13 -8 136 0 144 4 3 4 10 0 16
-9 15 -9 367 0 367 5 0 5 4 2 10 -9 14 -9 157 -1 149 3 -2 74 -72 158 -156z"/>
</g>
</svg>
